{
  "accessors": [
    {
      "bufferView": 2,
      "componentType": 5126,
      "count": 1225,
      "max": [
        11.18244743347168,
        3.7619943618774414,
        11.182451248168945
      ],
      "min": [
        -11.182449340820313,
        -3.7619943618774414,
        -11.182445526123047
      ],
      "type": "VEC3"
    },
    {
      "bufferView": 2,
      "byteOffset": 14700,
      "componentType": 5126,
      "count": 1225,
      "max": [
        1.0,
        0.9962639808654785,
        1.0
      ],
      "min": [
        -1.0,
        -0.9962639808654785,
        -1.0
      ],
      "type": "VEC3"
    },
    {
      "bufferView": 3,
      "componentType": 5126,
      "count": 1225,
      "max": [
        1.0,
        1.0,
        1.0,
        1.0
      ],
      "min": [
        -1.0,
        -1.0,
        -1.0,
        1.0
      ],
      "type": "VEC4"
    },
    {
      "bufferView": 1,
      "componentType": 5126,
      "count": 1225,
      "max": [
        0.9998135566711426,
        5.675832271575928
      ],
      "min": [
        0.0,
        -9.799003601074219e-05
      ],
      "type": "VEC2"
    },
    {
      "bufferView": 1,
      "byteOffset": 9800,
      "componentType": 5126,
      "count": 1225,
      "max": [
        0.0,
        1.0
      ],
      "min": [
        0.0,
        1.0
      ],
      "type": "VEC2"
    },
    {
      "bufferView": 1,
      "byteOffset": 19600,
      "componentType": 5126,
      "count": 1225,
      "max": [
        0.9998135566711426,
        5.675832271575928
      ],
      "min": [
        0.0,
        -9.799003601074219e-05
      ],
      "type": "VEC2"
    },
    {
      "bufferView": 0,
      "componentType": 5125,
      "count": 6144,
      "type": "SCALAR"
    },
    {
      "bufferView": 2,
      "byteOffset": 29400,
      "componentType": 5126,
      "count": 312,
      "max": [
        7.501824378967285,
        4.737704277038574,
        7.304874420166016
      ],
      "min": [
        -7.501824378967285,
        2.9983370304107666,
        -7.304874420166016
      ],
      "type": "VEC3"
    },
    {
      "bufferView": 2,
      "byteOffset": 33144,
      "componentType": 5126,
      "count": 312,
      "max": [
        0.958343505859375,
        1.0,
        0.9674771428108215
      ],
      "min": [
        -0.9583435654640198,
        0.2520565986633301,
        -0.9674767851829529
      ],
      "type": "VEC3"
    },
    {
      "bufferView": 1,
      "byteOffset": 29400,
      "componentType": 5126,
      "count": 312,
      "max": [
        0.0,
        1.0
      ],
      "min": [
        0.0,
        1.0
      ],
      "type": "VEC2"
    },
    {
      "bufferView": 1,
      "byteOffset": 31896,
      "componentType": 5126,
      "count": 312,
      "max": [
        0.0,
        1.0
      ],
      "min": [
        0.0,
        1.0
      ],
      "type": "VEC2"
    },
    {
      "bufferView": 0,
      "byteOffset": 24576,
      "componentType": 5125,
      "count": 828,
      "type": "SCALAR"
    },
    {
      "bufferView": 2,
      "byteOffset": 36888,
      "componentType": 5126,
      "count": 55,
      "max": [
        1.5033870935440063,
        5.532902717590332,
        1.480547547340393
      ],
      "min": [
        -1.5033873319625854,
        4.104600429534912,
        -1.4805477857589722
      ],
      "type": "VEC3"
    },
    {
      "bufferView": 2,
      "byteOffset": 37548,
      "componentType": 5126,
      "count": 55,
      "max": [
        0.9906550645828247,
        1.0,
        0.9756048917770386
      ],
      "min": [
        -0.9906550645828247,
        0.1363910436630249,
        -0.9756048917770386
      ],
      "type": "VEC3"
    },
    {
      "bufferView": 1,
      "byteOffset": 34392,
      "componentType": 5126,
      "count": 55,
      "max": [
        0.0,
        1.0
      ],
      "min": [
        0.0,
        1.0
      ],
      "type": "VEC2"
    },
    {
      "bufferView": 1,
      "byteOffset": 34832,
      "componentType": 5126,
      "count": 55,
      "max": [
        0.026034176349639893,
        0.9636077880859375
      ],
      "min": [
        0.026034146547317505,
        0.9636077284812927
      ],
      "type": "VEC2"
    },
    {
      "bufferView": 0,
      "byteOffset": 27888,
      "componentType": 5125,
      "count": 270,
      "type": "SCALAR"
    },
    {
      "bufferView": 2,
      "byteOffset": 38208,
      "componentType": 5126,
      "count": 388,
      "max": [
        2.4667458534240723,
        5.455676078796387,
        2.4667458534240723
      ],
      "min": [
        -2.4667463302612305,
        3.910555362701416,
        -2.4667463302612305
      ],
      "type": "VEC3"
    },
    {
      "bufferView": 2,
      "byteOffset": 42864,
      "componentType": 5126,
      "count": 388,
      "max": [
        1.0,
        1.0,
        1.0
      ],
      "min": [
        -1.0,
        -1.0169400184167898e-06,
        -1.0
      ],
      "type": "VEC3"
    },
    {
      "bufferView": 1,
      "byteOffset": 35272,
      "componentType": 5126,
      "count": 388,
      "max": [
        0.0,
        1.0
      ],
      "min": [
        0.0,
        1.0
      ],
      "type": "VEC2"
    },
    {
      "bufferView": 1,
      "byteOffset": 38376,
      "componentType": 5126,
      "count": 388,
      "max": [
        0.7149731516838074,
        0.606661319732666
      ],
      "min": [
        0.5987637639045715,
        0.5527868270874023
      ],
      "type": "VEC2"
    },
    {
      "bufferView": 0,
      "byteOffset": 28968,
      "componentType": 5125,
      "count": 1008,
      "type": "SCALAR"
    },
    {
      "bufferView": 2,
      "byteOffset": 47520,
      "componentType": 5126,
      "count": 1225,
      "max": [
        11.18244743347168,
        3.7619943618774414,
        11.182451248168945
      ],
      "min": [
        -11.182449340820313,
        -3.7619943618774414,
        -11.182445526123047
      ],
      "type": "VEC3"
    },
    {
      "bufferView": 2,
      "byteOffset": 62220,
      "componentType": 5126,
      "count": 1225,
      "max": [
        1.0,
        0.9962639808654785,
        1.0
      ],
      "min": [
        -1.0,
        -0.9962639808654785,
        -1.0
      ],
      "type": "VEC3"
    },
    {
      "bufferView": 3,
      "byteOffset": 19600,
      "componentType": 5126,
      "count": 1225,
      "max": [
        1.0,
        1.0,
        1.0,
        1.0
      ],
      "min": [
        -1.0,
        -1.0,
        -1.0,
        1.0
      ],
      "type": "VEC4"
    },
    {
      "bufferView": 1,
      "byteOffset": 41480,
      "componentType": 5126,
      "count": 1225,
      "max": [
        0.9998135566711426,
        5.675832271575928
      ],
      "min": [
        0.0,
        -9.799003601074219e-05
      ],
      "type": "VEC2"
    },
    {
      "bufferView": 1,
      "byteOffset": 51280,
      "componentType": 5126,
      "count": 1225,
      "max": [
        0.0,
        1.0
      ],
      "min": [
        0.0,
        1.0
      ],
      "type": "VEC2"
    },
    {
      "bufferView": 1,
      "byteOffset": 61080,
      "componentType": 5126,
      "count": 1225,
      "max": [
        0.9998135566711426,
        5.675832271575928
      ],
      "min": [
        0.0,
        -9.799003601074219e-05
      ],
      "type": "VEC2"
    },
    {
      "bufferView": 0,
      "byteOffset": 33000,
      "componentType": 5125,
      "count": 6144,
      "type": "SCALAR"
    },
    {
      "bufferView": 2,
      "byteOffset": 76920,
      "componentType": 5126,
      "count": 312,
      "max": [
        7.501824378967285,
        4.737704277038574,
        7.304874420166016
      ],
      "min": [
        -7.501824378967285,
        2.9983370304107666,
        -7.304874420166016
      ],
      "type": "VEC3"
    },
    {
      "bufferView": 2,
      "byteOffset": 80664,
      "componentType": 5126,
      "count": 312,
      "max": [
        0.958343505859375,
        1.0,
        0.9674771428108215
      ],
      "min": [
        -0.9583435654640198,
        0.2520565986633301,
        -0.9674767851829529
      ],
      "type": "VEC3"
    },
    {
      "bufferView": 1,
      "byteOffset": 70880,
      "componentType": 5126,
      "count": 312,
      "max": [
        0.0,
        1.0
      ],
      "min": [
        0.0,
        1.0
      ],
      "type": "VEC2"
    },
    {
      "bufferView": 1,
      "byteOffset": 73376,
      "componentType": 5126,
      "count": 312,
      "max": [
        0.0,
        1.0
      ],
      "min": [
        0.0,
        1.0
      ],
      "type": "VEC2"
    },
    {
      "bufferView": 0,
      "byteOffset": 57576,
      "componentType": 5125,
      "count": 828,
      "type": "SCALAR"
    },
    {
      "bufferView": 2,
      "byteOffset": 84408,
      "componentType": 5126,
      "count": 55,
      "max": [
        1.5033870935440063,
        5.532902717590332,
        1.480547547340393
      ],
      "min": [
        -1.5033873319625854,
        4.104600429534912,
        -1.4805477857589722
      ],
      "type": "VEC3"
    },
    {
      "bufferView": 2,
      "byteOffset": 85068,
      "componentType": 5126,
      "count": 55,
      "max": [
        0.9906550645828247,
        1.0,
        0.9756048917770386
      ],
      "min": [
        -0.9906550645828247,
        0.1363910436630249,
        -0.9756048917770386
      ],
      "type": "VEC3"
    },
    {
      "bufferView": 1,
      "byteOffset": 75872,
      "componentType": 5126,
      "count": 55,
      "max": [
        0.0,
        1.0
      ],
      "min": [
        0.0,
        1.0
      ],
      "type": "VEC2"
    },
    {
      "bufferView": 1,
      "byteOffset": 76312,
      "componentType": 5126,
      "count": 55,
      "max": [
        0.026034176349639893,
        0.9636077880859375
      ],
      "min": [
        0.026034146547317505,
        0.9636077284812927
      ],
      "type": "VEC2"
    },
    {
      "bufferView": 0,
      "byteOffset": 60888,
      "componentType": 5125,
      "count": 270,
      "type": "SCALAR"
    },
    {
      "bufferView": 2,
      "byteOffset": 85728,
      "componentType": 5126,
      "count": 388,
      "max": [
        2.4667458534240723,
        5.455676078796387,
        2.4667458534240723
      ],
      "min": [
        -2.4667463302612305,
        3.910555362701416,
        -2.4667463302612305
      ],
      "type": "VEC3"
    },
    {
      "bufferView": 2,
      "byteOffset": 90384,
      "componentType": 5126,
      "count": 388,
      "max": [
        1.0,
        1.0,
        1.0
      ],
      "min": [
        -1.0,
        -1.0169400184167898e-06,
        -1.0
      ],
      "type": "VEC3"
    },
    {
      "bufferView": 1,
      "byteOffset": 76752,
      "componentType": 5126,
      "count": 388,
      "max": [
        0.0,
        1.0
      ],
      "min": [
        0.0,
        1.0
      ],
      "type": "VEC2"
    },
    {
      "bufferView": 1,
      "byteOffset": 79856,
      "componentType": 5126,
      "count": 388,
      "max": [
        0.7149731516838074,
        0.606661319732666
      ],
      "min": [
        0.5987637639045715,
        0.5527868270874023
      ],
      "type": "VEC2"
    },
    {
      "bufferView": 0,
      "byteOffset": 61968,
      "componentType": 5125,
      "count": 1008,
      "type": "SCALAR"
    },
    {
      "bufferView": 2,
      "byteOffset": 95040,
      "componentType": 5126,
      "count": 1225,
      "max": [
        11.18244743347168,
        3.7619943618774414,
        11.182451248168945
      ],
      "min": [
        -11.182449340820313,
        -3.7619943618774414,
        -11.182445526123047
      ],
      "type": "VEC3"
    },
    {
      "bufferView": 2,
      "byteOffset": 109740,
      "componentType": 5126,
      "count": 1225,
      "max": [
        1.0,
        0.9962639808654785,
        1.0
      ],
      "min": [
        -1.0,
        -0.9962639808654785,
        -1.0
      ],
      "type": "VEC3"
    },
    {
      "bufferView": 3,
      "byteOffset": 39200,
      "componentType": 5126,
      "count": 1225,
      "max": [
        1.0,
        1.0,
        1.0,
        1.0
      ],
      "min": [
        -1.0,
        -1.0,
        -1.0,
        1.0
      ],
      "type": "VEC4"
    },
    {
      "bufferView": 1,
      "byteOffset": 82960,
      "componentType": 5126,
      "count": 1225,
      "max": [
        0.9998135566711426,
        5.675832271575928
      ],
      "min": [
        0.0,
        -9.799003601074219e-05
      ],
      "type": "VEC2"
    },
    {
      "bufferView": 1,
      "byteOffset": 92760,
      "componentType": 5126,
      "count": 1225,
      "max": [
        0.0,
        1.0
      ],
      "min": [
        0.0,
        1.0
      ],
      "type": "VEC2"
    },
    {
      "bufferView": 1,
      "byteOffset": 102560,
      "componentType": 5126,
      "count": 1225,
      "max": [
        0.9998135566711426,
        5.675832271575928
      ],
      "min": [
        0.0,
        -9.799003601074219e-05
      ],
      "type": "VEC2"
    },
    {
      "bufferView": 0,
      "byteOffset": 66000,
      "componentType": 5125,
      "count": 6144,
      "type": "SCALAR"
    },
    {
      "bufferView": 2,
      "byteOffset": 124440,
      "componentType": 5126,
      "count": 312,
      "max": [
        7.501824378967285,
        4.737704277038574,
        7.304874420166016
      ],
      "min": [
        -7.501824378967285,
        2.9983370304107666,
        -7.304874420166016
      ],
      "type": "VEC3"
    },
    {
      "bufferView": 2,
      "byteOffset": 128184,
      "componentType": 5126,
      "count": 312,
      "max": [
        0.958343505859375,
        1.0,
        0.9674771428108215
      ],
      "min": [
        -0.9583435654640198,
        0.2520565986633301,
        -0.9674767851829529
      ],
      "type": "VEC3"
    },
    {
      "bufferView": 1,
      "byteOffset": 112360,
      "componentType": 5126,
      "count": 312,
      "max": [
        0.0,
        1.0
      ],
      "min": [
        0.0,
        1.0
      ],
      "type": "VEC2"
    },
    {
      "bufferView": 1,
      "byteOffset": 114856,
      "componentType": 5126,
      "count": 312,
      "max": [
        0.0,
        1.0
      ],
      "min": [
        0.0,
        1.0
      ],
      "type": "VEC2"
    },
    {
      "bufferView": 0,
      "byteOffset": 90576,
      "componentType": 5125,
      "count": 828,
      "type": "SCALAR"
    },
    {
      "bufferView": 2,
      "byteOffset": 131928,
      "componentType": 5126,
      "count": 55,
      "max": [
        1.5033870935440063,
        5.532902717590332,
        1.480547547340393
      ],
      "min": [
        -1.5033873319625854,
        4.104600429534912,
        -1.4805477857589722
      ],
      "type": "VEC3"
    },
    {
      "bufferView": 2,
      "byteOffset": 132588,
      "componentType": 5126,
      "count": 55,
      "max": [
        0.9906550645828247,
        1.0,
        0.9756048917770386
      ],
      "min": [
        -0.9906550645828247,
        0.1363910436630249,
        -0.9756048917770386
      ],
      "type": "VEC3"
    },
    {
      "bufferView": 1,
      "byteOffset": 117352,
      "componentType": 5126,
      "count": 55,
      "max": [
        0.0,
        1.0
      ],
      "min": [
        0.0,
        1.0
      ],
      "type": "VEC2"
    },
    {
      "bufferView": 1,
      "byteOffset": 117792,
      "componentType": 5126,
      "count": 55,
      "max": [
        0.026034176349639893,
        0.9636077880859375
      ],
      "min": [
        0.026034146547317505,
        0.9636077284812927
      ],
      "type": "VEC2"
    },
    {
      "bufferView": 0,
      "byteOffset": 93888,
      "componentType": 5125,
      "count": 270,
      "type": "SCALAR"
    },
    {
      "bufferView": 2,
      "byteOffset": 133248,
      "componentType": 5126,
      "count": 388,
      "max": [
        2.4667458534240723,
        5.455676078796387,
        2.4667458534240723
      ],
      "min": [
        -2.4667463302612305,
        3.910555362701416,
        -2.4667463302612305
      ],
      "type": "VEC3"
    },
    {
      "bufferView": 2,
      "byteOffset": 137904,
      "componentType": 5126,
      "count": 388,
      "max": [
        1.0,
        1.0,
        1.0
      ],
      "min": [
        -1.0,
        -1.0169400184167898e-06,
        -1.0
      ],
      "type": "VEC3"
    },
    {
      "bufferView": 1,
      "byteOffset": 118232,
      "componentType": 5126,
      "count": 388,
      "max": [
        0.0,
        1.0
      ],
      "min": [
        0.0,
        1.0
      ],
      "type": "VEC2"
    },
    {
      "bufferView": 1,
      "byteOffset": 121336,
      "componentType": 5126,
      "count": 388,
      "max": [
        0.7149731516838074,
        0.606661319732666
      ],
      "min": [
        0.5987637639045715,
        0.5527868270874023
      ],
      "type": "VEC2"
    },
    {
      "bufferView": 0,
      "byteOffset": 94968,
      "componentType": 5125,
      "count": 1008,
      "type": "SCALAR"
    },
    {
      "bufferView": 2,
      "byteOffset": 142560,
      "componentType": 5126,
      "count": 101,
      "max": [
        31.535724639892578,
        59.491031646728516,
        -74.06002807617188
      ],
      "min": [
        -31.5357608795166,
        6.601487636566162,
        -87.86955261230469
      ],
      "type": "VEC3"
    },
    {
      "bufferView": 2,
      "byteOffset": 143772,
      "componentType": 5126,
      "count": 101,
      "max": [
        0.9913010001182556,
        0.4588738977909088,
        -0.01639670692384243
      ],
      "min": [
        -0.9912998676300049,
        -0.08083941042423248,
        -1.0
      ],
      "type": "VEC3"
    },
    {
      "bufferView": 1,
      "byteOffset": 124440,
      "componentType": 5126,
      "count": 101,
      "max": [
        0.9820396900177002,
        0.9858154058456421
      ],
      "min": [
        0.024537883698940277,
        0.04512423276901245
      ],
      "type": "VEC2"
    },
    {
      "bufferView": 0,
      "byteOffset": 99000,
      "componentType": 5125,
      "count": 354,
      "type": "SCALAR"
    },
    {
      "bufferView": 2,
      "byteOffset": 144984,
      "componentType": 5126,
      "count": 145,
      "max": [
        31.58173942565918,
        26.678848266601563,
        76.0262680053711
      ],
      "min": [
        -31.58176612854004,
        18.509119033813477,
        68.39891815185547
      ],
      "type": "VEC3"
    },
    {
      "bufferView": 2,
      "byteOffset": 146724,
      "componentType": 5126,
      "count": 145,
      "max": [
        0.9712917804718018,
        0.4439045488834381,
        1.0
      ],
      "min": [
        -0.971291184425354,
        -0.06312663108110428,
        0.2167346030473709
      ],
      "type": "VEC3"
    },
    {
      "bufferView": 1,
      "byteOffset": 125248,
      "componentType": 5126,
      "count": 145,
      "max": [
        0.9911403656005859,
        0.47015857696533203
      ],
      "min": [
        0.014267521910369396,
        0.02904820442199707
      ],
      "type": "VEC2"
    },
    {
      "bufferView": 0,
      "byteOffset": 100416,
      "componentType": 5125,
      "count": 546,
      "type": "SCALAR"
    },
    {
      "bufferView": 2,
      "byteOffset": 148464,
      "componentType": 5126,
      "count": 37,
      "max": [
        20.530296325683594,
        66.68456268310547,
        -73.08148956298828
      ],
      "min": [
        -20.530296325683594,
        63.873313903808594,
        -77.13809204101563
      ],
      "type": "VEC3"
    },
    {
      "bufferView": 2,
      "byteOffset": 148908,
      "componentType": 5126,
      "count": 37,
      "max": [
        0.9683959484100342,
        0.9676634073257446,
        0.44053056836128235
      ],
      "min": [
        -0.968395471572876,
        -0.6903420686721802,
        -0.9899929165840149
      ],
      "type": "VEC3"
    },
    {
      "bufferView": 1,
      "byteOffset": 126408,
      "componentType": 5126,
      "count": 37,
      "max": [
        0.3566473424434662,
        0.6521087884902954
      ],
      "min": [
        0.21584023535251617,
        0.6401175856590271
      ],
      "type": "VEC2"
    },
    {
      "bufferView": 0,
      "byteOffset": 102600,
      "componentType": 5125,
      "count": 156,
      "type": "SCALAR"
    },
    {
      "bufferView": 2,
      "byteOffset": 149352,
      "componentType": 5126,
      "count": 806,
      "max": [
        7.097465991973877,
        6.743151664733887,
        4.213073253631592
      ],
      "min": [
        -7.0975165367126465,
        -7.451624393463135,
        -0.05193113535642624
      ],
      "type": "VEC3"
    },
    {
      "bufferView": 2,
      "byteOffset": 159024,
      "componentType": 5126,
      "count": 806,
      "max": [
        0.9999227523803711,
        0.9999855160713196,
        0.9999855756759644
      ],
      "min": [
        -0.9999227523803711,
        -0.9999855756759644,
        -0.999984085559845
      ],
      "type": "VEC3"
    },
    {
      "bufferView": 1,
      "byteOffset": 126704,
      "componentType": 5126,
      "count": 806,
      "max": [
        0.8786771297454834,
        0.9681797623634338
      ],
      "min": [
        0.5609521865844727,
        0.6517550945281982
      ],
      "type": "VEC2"
    },
    {
      "bufferView": 0,
      "byteOffset": 103224,
      "componentType": 5125,
      "count": 4716,
      "type": "SCALAR"
    },
    {
      "bufferView": 2,
      "byteOffset": 168696,
      "componentType": 5126,
      "count": 22,
      "max": [
        -12.862736701965332,
        37.60582733154297,
        34.39192199707031
      ],
      "min": [
        -18.133378982543945,
        26.290977478027344,
        26.344404220581055
      ],
      "type": "VEC3"
    },
    {
      "bufferView": 2,
      "byteOffset": 168960,
      "componentType": 5126,
      "count": 22,
      "max": [
        1.0,
        0.9551500082015991,
        0.999572217464447
      ],
      "min": [
        -1.0,
        -0.7763007879257202,
        -0.966326117515564
      ],
      "type": "VEC3"
    },
    {
      "bufferView": 1,
      "byteOffset": 133152,
      "componentType": 5126,
      "count": 22,
      "max": [
        0.9298009872436523,
        0.8343744277954102
      ],
      "min": [
        0.9298006296157837,
        0.8343735933303833
      ],
      "type": "VEC2"
    },
    {
      "bufferView": 0,
      "byteOffset": 122088,
      "componentType": 5125,
      "count": 36,
      "type": "SCALAR"
    },
    {
      "bufferView": 2,
      "byteOffset": 169224,
      "componentType": 5126,
      "count": 122,
      "max": [
        5.831270694732666,
        41.81284713745117,
        49.232093811035156
      ],
      "min": [
        -29.42719268798828,
        31.243762969970703,
        30.81092071533203
      ],
      "type": "VEC3"
    },
    {
      "bufferView": 2,
      "byteOffset": 170688,
      "componentType": 5126,
      "count": 122,
      "max": [
        0.8830391764640808,
        0.9296599626541138,
        0.8888355493545532
      ],
      "min": [
        -0.8830387592315674,
        -0.9233505725860596,
        -1.0
      ],
      "type": "VEC3"
    },
    {
      "bufferView": 1,
      "byteOffset": 133328,
      "componentType": 5126,
      "count": 122,
      "max": [
        2.0,
        1.0
      ],
      "min": [
        -1.0,
        -2.0
      ],
      "type": "VEC2"
    },
    {
      "bufferView": 0,
      "byteOffset": 122232,
      "componentType": 5125,
      "count": 474,
      "type": "SCALAR"
    },
    {
      "bufferView": 2,
      "byteOffset": 172152,
      "componentType": 5126,
      "count": 51,
      "max": [
        3.826181173324585,
        58.2352294921875,
        -75.72852325439453
      ],
      "min": [
        -3.826181173324585,
        56.29813766479492,
        -78.76001739501953
      ],
      "type": "VEC3"
    },
    {
      "bufferView": 2,
      "byteOffset": 172764,
      "componentType": 5126,
      "count": 51,
      "max": [
        0.8698525428771973,
        1.0,
        1.0
      ],
      "min": [
        -0.8698500394821167,
        -1.0,
        -1.0
      ],
      "type": "VEC3"
    },
    {
      "bufferView": 1,
      "byteOffset": 134304,
      "componentType": 5126,
      "count": 51,
      "max": [
        0.9813866019248962,
        0.06414288282394409
      ],
      "min": [
        0.9813866019248962,
        0.06414270401000977
      ],
      "type": "VEC2"
    },
    {
      "bufferView": 0,
      "byteOffset": 124128,
      "componentType": 5125,
      "count": 84,
      "type": "SCALAR"
    },
    {
      "bufferView": 2,
      "byteOffset": 173376,
      "componentType": 5126,
      "count": 42,
      "max": [
        31.65415382385254,
        57.600128173828125,
        -2.843183755874634
      ],
      "min": [
        -32.6264533996582,
        36.08226013183594,
        -39.34407043457031
      ],
      "type": "VEC3"
    },
    {
      "bufferView": 2,
      "byteOffset": 173880,
      "componentType": 5126,
      "count": 42,
      "max": [
        -0.1950497329235077,
        0.911457896232605,
        0.9783473014831543
      ],
      "min": [
        -0.6488021612167358,
        -0.9447548985481262,
        -0.9392123222351074
      ],
      "type": "VEC3"
    },
    {
      "bufferView": 1,
      "byteOffset": 134712,
      "componentType": 5126,
      "count": 42,
      "max": [
        0.9864997267723083,
        0.06432229280471802
      ],
      "min": [
        0.9864997267723083,
        0.06432229280471802
      ],
      "type": "VEC2"
    },
    {
      "bufferView": 0,
      "byteOffset": 124464,
      "componentType": 5125,
      "count": 90,
      "type": "SCALAR"
    },
    {
      "bufferView": 2,
      "byteOffset": 174384,
      "componentType": 5126,
      "count": 166,
      "max": [
        30.17964744567871,
        60.284027099609375,
        57.644798278808594
      ],
      "min": [
        -32.6264533996582,
        36.08226013183594,
        -86.66216278076172
      ],
      "type": "VEC3"
    },
    {
      "bufferView": 2,
      "byteOffset": 176376,
      "componentType": 5126,
      "count": 166,
      "max": [
        0.46829134225845337,
        0.9147253036499023,
        0.631324827671051
      ],
      "min": [
        -0.977258563041687,
        0.1280868500471115,
        -0.9751983284950256
      ],
      "type": "VEC3"
    },
    {
      "bufferView": 1,
      "byteOffset": 135048,
      "componentType": 5126,
      "count": 166,
      "max": [
        0.9856045246124268,
        0.06225728988647461
      ],
      "min": [
        0.9856041669845581,
        0.06225717067718506
      ],
      "type": "VEC2"
    },
    {
      "bufferView": 0,
      "byteOffset": 124824,
      "componentType": 5125,
      "count": 504,
      "type": "SCALAR"
    },
    {
      "bufferView": 2,
      "byteOffset": 178368,
      "componentType": 5126,
      "count": 154,
      "max": [
        22.27402114868164,
        49.79852294921875,
        4.262203216552734
      ],
      "min": [
        -24.249004364013672,
        29.001934051513672,
        -72.38001251220703
      ],
      "type": "VEC3"
    },
    {
      "bufferView": 2,
      "byteOffset": 180216,
      "componentType": 5126,
      "count": 154,
      "max": [
        1.0,
        0.7552326917648315,
        0.910785973072052
      ],
      "min": [
        -1.0,
        -0.21908652782440186,
        -0.7334271669387817
      ],
      "type": "VEC3"
    },
    {
      "bufferView": 1,
      "byteOffset": 136376,
      "componentType": 5126,
      "count": 154,
      "max": [
        0.9826604723930359,
        0.06459033489227295
      ],
      "min": [
        0.9826604127883911,
        0.0645902156829834
      ],
      "type": "VEC2"
    },
    {
      "bufferView": 0,
      "byteOffset": 126840,
      "componentType": 5125,
      "count": 648,
      "type": "SCALAR"
    },
    {
      "bufferView": 2,
      "byteOffset": 182064,
      "componentType": 5126,
      "count": 384,
      "max": [
        32.126834869384766,
        62.18194580078125,
        60.117218017578125
      ],
      "min": [
        -32.6264533996582,
        31.472217559814453,
        -86.66217041015625
      ],
      "type": "VEC3"
    },
    {
      "bufferView": 2,
      "byteOffset": 186672,
      "componentType": 5126,
      "count": 384,
      "max": [
        0.9952124953269958,
        0.9999953508377075,
        0.9751983284950256
      ],
      "min": [
        -0.9956417679786682,
        -0.9981921315193176,
        -0.7226709723472595
      ],
      "type": "VEC3"
    },
    {
      "bufferView": 1,
      "byteOffset": 137608,
      "componentType": 5126,
      "count": 384,
      "max": [
        0.9847342371940613,
        0.06241881847381592
      ],
      "min": [
        0.9847342371940613,
        0.06241881847381592
      ],
      "type": "VEC2"
    },
    {
      "bufferView": 0,
      "byteOffset": 129432,
      "componentType": 5125,
      "count": 1308,
      "type": "SCALAR"
    },
    {
      "bufferView": 2,
      "byteOffset": 191280,
      "componentType": 5126,
      "count": 91,
      "max": [
        28.408763885498047,
        37.83992004394531,
        82.62508392333984
      ],
      "min": [
        -28.408763885498047,
        24.797801971435547,
        52.93199157714844
      ],
      "type": "VEC3"
    },
    {
      "bufferView": 2,
      "byteOffset": 192372,
      "componentType": 5126,
      "count": 91,
      "max": [
        0.46141141653060913,
        0.9325910210609436,
        0.9060220122337341
      ],
      "min": [
        -0.46141141653060913,
        0.11115141212940216,
        0.3590201139450073
      ],
      "type": "VEC3"
    },
    {
      "bufferView": 1,
      "byteOffset": 140680,
      "componentType": 5126,
      "count": 91,
      "max": [
        0.9784427881240845,
        0.9762998819351196
      ],
      "min": [
        0.7947506904602051,
        0.743205726146698
      ],
      "type": "VEC2"
    },
    {
      "bufferView": 0,
      "byteOffset": 134664,
      "componentType": 5125,
      "count": 384,
      "type": "SCALAR"
    },
    {
      "bufferView": 2,
      "byteOffset": 193464,
      "componentType": 5126,
      "count": 305,
      "max": [
        27.00496482849121,
        5.39012336730957,
        -56.839866638183594
      ],
      "min": [
        14.48322868347168,
        0.06872744113206863,
        -86.20099639892578
      ],
      "type": "VEC3"
    },
    {
      "bufferView": 2,
      "byteOffset": 197124,
      "componentType": 5126,
      "count": 305,
      "max": [
        1.0,
        1.0,
        1.0
      ],
      "min": [
        -1.0,
        -1.0,
        -0.980338454246521
      ],
      "type": "VEC3"
    },
    {
      "bufferView": 1,
      "byteOffset": 141408,
      "componentType": 5126,
      "count": 305,
      "max": [
        0.43254128098487854,
        0.14386457204818726
      ],
      "min": [
        0.3697469234466553,
        0.07695823907852173
      ],
      "type": "VEC2"
    },
    {
      "bufferView": 0,
      "byteOffset": 136200,
      "componentType": 5125,
      "count": 900,
      "type": "SCALAR"
    },
    {
      "bufferView": 2,
      "byteOffset": 200784,
      "componentType": 5126,
      "count": 25,
      "max": [
        25.8450927734375,
        3.761216163635254,
        -84.06770324707031
      ],
      "min": [
        23.847654342651367,
        1.8383694887161255,
        -84.06771850585938
      ],
      "type": "VEC3"
    },
    {
      "bufferView": 2,
      "byteOffset": 201084,
      "componentType": 5126,
      "count": 25,
      "max": [
        3.211784496670589e-05,
        3.139131877105683e-05,
        -1.0
      ],
      "min": [
        -3.2117335649672896e-05,
        -6.278216460486874e-05,
        -1.0
      ],
      "type": "VEC3"
    },
    {
      "bufferView": 1,
      "byteOffset": 143848,
      "componentType": 5126,
      "count": 25,
      "max": [
        0.0,
        1.0
      ],
      "min": [
        0.0,
        1.0
      ],
      "type": "VEC2"
    },
    {
      "bufferView": 0,
      "byteOffset": 139800,
      "componentType": 5125,
      "count": 72,
      "type": "SCALAR"
    },
    {
      "bufferView": 2,
      "byteOffset": 201384,
      "componentType": 5126,
      "count": 4,
      "max": [
        6.495471000671387,
        31.492650985717773,
        -85.9241943359375
      ],
      "min": [
        -6.495471000671387,
        24.20105743408203,
        -86.728515625
      ],
      "type": "VEC3"
    },
    {
      "bufferView": 2,
      "byteOffset": 201432,
      "componentType": 5126,
      "count": 4,
      "max": [
        0.0,
        0.1096438467502594,
        -0.9939709305763245
      ],
      "min": [
        0.0,
        0.10964131355285645,
        -0.9939712285995483
      ],
      "type": "VEC3"
    },
    {
      "bufferView": 1,
      "byteOffset": 144048,
      "componentType": 5126,
      "count": 4,
      "max": [
        1.0,
        1.0
      ],
      "min": [
        2.1769302804841573e-08,
        0.49788498878479004
      ],
      "type": "VEC2"
    },
    {
      "bufferView": 0,
      "byteOffset": 140088,
      "componentType": 5125,
      "count": 6,
      "type": "SCALAR"
    },
    {
      "bufferView": 2,
      "byteOffset": 201480,
      "componentType": 5126,
      "count": 4,
      "max": [
        6.5800299644470215,
        11.703524589538574,
        84.96646881103516
      ],
      "min": [
        -6.5800299644470215,
        5.116392135620117,
        84.96646881103516
      ],
      "type": "VEC3"
    },
    {
      "bufferView": 2,
      "byteOffset": 201528,
      "componentType": 5126,
      "count": 4,
      "max": [
        0.0,
        0.0,
        1.0
      ],
      "min": [
        0.0,
        0.0,
        1.0
      ],
      "type": "VEC3"
    },
    {
      "bufferView": 1,
      "byteOffset": 144080,
      "componentType": 5126,
      "count": 4,
      "max": [
        1.0,
        0.49967432022094727
      ],
      "min": [
        2.0394523403410858e-07,
        0.0
      ],
      "type": "VEC2"
    },
    {
      "bufferView": 0,
      "byteOffset": 140112,
      "componentType": 5125,
      "count": 6,
      "type": "SCALAR"
    },
    {
      "bufferView": 2,
      "byteOffset": 201576,
      "componentType": 5126,
      "count": 1696,
      "max": [
        34.9631233215332,
        66.72184753417969,
        75.33587646484375
      ],
      "min": [
        -34.963165283203125,
        -1.9604018926620483,
        -88.38331604003906
      ],
      "type": "VEC3"
    },
    {
      "bufferView": 2,
      "byteOffset": 221928,
      "componentType": 5126,
      "count": 1696,
      "max": [
        1.0,
        0.9999999403953552,
        0.9180570244789124
      ],
      "min": [
        -1.0,
        -0.9914840459823608,
        -0.9997782707214355
      ],
      "type": "VEC3"
    },
    {
      "bufferView": 1,
      "byteOffset": 144112,
      "componentType": 5126,
      "count": 1696,
      "max": [
        0.9924418330192566,
        0.9832555651664734
      ],
      "min": [
        0.010276994667947292,
        0.005498051643371582
      ],
      "type": "VEC2"
    },
    {
      "bufferView": 0,
      "byteOffset": 140136,
      "componentType": 5125,
      "count": 5898,
      "type": "SCALAR"
    },
    {
      "bufferView": 2,
      "byteOffset": 242280,
      "componentType": 5126,
      "count": 20,
      "max": [
        24.765708923339844,
        38.58934783935547,
        83.61293029785156
      ],
      "min": [
        -26.002948760986328,
        10.225569725036621,
        -88.0048599243164
      ],
      "type": "VEC3"
    },
    {
      "bufferView": 2,
      "byteOffset": 242520,
      "componentType": 5126,
      "count": 20,
      "max": [
        0.17297101020812988,
        0.15927466750144958,
        0.9932708740234375
      ],
      "min": [
        -0.16787740588188171,
        -0.048117745667696,
        -0.989219069480896
      ],
      "type": "VEC3"
    },
    {
      "bufferView": 1,
      "byteOffset": 157680,
      "componentType": 5126,
      "count": 20,
      "max": [
        0.8800439834594727,
        0.4986954927444458
      ],
      "min": [
        0.014120474457740784,
        0.05988401174545288
      ],
      "type": "VEC2"
    },
    {
      "bufferView": 0,
      "byteOffset": 163728,
      "componentType": 5125,
      "count": 30,
      "type": "SCALAR"
    },
    {
      "bufferView": 2,
      "byteOffset": 242760,
      "componentType": 5126,
      "count": 30,
      "max": [
        34.39815902709961,
        27.323665618896484,
        51.355770111083984
      ],
      "min": [
        -34.398193359375,
        25.85898208618164,
        48.98937225341797
      ],
      "type": "VEC3"
    },
    {
      "bufferView": 2,
      "byteOffset": 243120,
      "componentType": 5126,
      "count": 30,
      "max": [
        0.9554253220558167,
        0.6352865099906921,
        0.6630302667617798
      ],
      "min": [
        -0.9554259777069092,
        -0.4801482558250427,
        -0.5709885358810425
      ],
      "type": "VEC3"
    },
    {
      "bufferView": 1,
      "byteOffset": 157840,
      "componentType": 5126,
      "count": 30,
      "max": [
        0.29198339581489563,
        0.9910078644752502
      ],
      "min": [
        0.018414126709103584,
        0.820475697517395
      ],
      "type": "VEC2"
    },
    {
      "bufferView": 0,
      "byteOffset": 163848,
      "componentType": 5125,
      "count": 84,
      "type": "SCALAR"
    },
    {
      "bufferView": 2,
      "byteOffset": 243480,
      "componentType": 5126,
      "count": 328,
      "max": [
        34.003570556640625,
        18.56270980834961,
        -75.67324829101563
      ],
      "min": [
        -34.003562927246094,
        2.0059900283813477,
        -89.73619079589844
      ],
      "type": "VEC3"
    },
    {
      "bufferView": 2,
      "byteOffset": 247416,
      "componentType": 5126,
      "count": 328,
      "max": [
        0.9990301132202148,
        1.0,
        0.0001160875617642887
      ],
      "min": [
        -0.9990310668945313,
        -0.9399658441543579,
        -0.9964534044265747
      ],
      "type": "VEC3"
    },
    {
      "bufferView": 1,
      "byteOffset": 158080,
      "componentType": 5126,
      "count": 328,
      "max": [
        0.9849357604980469,
        0.6668083667755127
      ],
      "min": [
        0.4517364501953125,
        0.5749845504760742
      ],
      "type": "VEC2"
    },
    {
      "bufferView": 0,
      "byteOffset": 164184,
      "componentType": 5125,
      "count": 1098,
      "type": "SCALAR"
    },
    {
      "bufferView": 2,
      "byteOffset": 251352,
      "componentType": 5126,
      "count": 48,
      "max": [
        34.35464096069336,
        33.239837646484375,
        9.880640983581543
      ],
      "min": [
        -34.35467529296875,
        28.905967712402344,
        -9.177872657775879
      ],
      "type": "VEC3"
    },
    {
      "bufferView": 2,
      "byteOffset": 251928,
      "componentType": 5126,
      "count": 48,
      "max": [
        0.992595911026001,
        0.1908302754163742,
        0.005986676551401615
      ],
      "min": [
        -0.9925956726074219,
        0.1213829517364502,
        -1.8452988115313929e-06
      ],
      "type": "VEC3"
    },
    {
      "bufferView": 1,
      "byteOffset": 160704,
      "componentType": 5126,
      "count": 48,
      "max": [
        0.5345865488052368,
        0.21869611740112305
      ],
      "min": [
        0.5048536062240601,
        0.20684844255447388
      ],
      "type": "VEC2"
    },
    {
      "bufferView": 0,
      "byteOffset": 168576,
      "componentType": 5125,
      "count": 96,
      "type": "SCALAR"
    },
    {
      "bufferView": 2,
      "byteOffset": 252504,
      "componentType": 5126,
      "count": 272,
      "max": [
        29.2056941986084,
        24.39473533630371,
        84.80732727050781
      ],
      "min": [
        -29.205698013305664,
        7.67014217376709,
        78.0834732055664
      ],
      "type": "VEC3"
    },
    {
      "bufferView": 2,
      "byteOffset": 255768,
      "componentType": 5126,
      "count": 272,
      "max": [
        0.9969710111618042,
        1.0,
        0.997272253036499
      ],
      "min": [
        -0.9969709515571594,
        -1.0,
        -0.9983354806900024
      ],
      "type": "VEC3"
    },
    {
      "bufferView": 1,
      "byteOffset": 161088,
      "componentType": 5126,
      "count": 272,
      "max": [
        0.9856091141700745,
        0.55171138048172
      ],
      "min": [
        0.49705711007118225,
        0.31348860263824463
      ],
      "type": "VEC2"
    },
    {
      "bufferView": 0,
      "byteOffset": 168960,
      "componentType": 5125,
      "count": 480,
      "type": "SCALAR"
    },
    {
      "bufferView": 2,
      "byteOffset": 259032,
      "componentType": 5126,
      "count": 191,
      "max": [
        34.37434768676758,
        9.505810737609863,
        40.155029296875
      ],
      "min": [
        -34.37438201904297,
        -5.067319393157959,
        -71.77557373046875
      ],
      "type": "VEC3"
    },
    {
      "bufferView": 2,
      "byteOffset": 261324,
      "componentType": 5126,
      "count": 191,
      "max": [
        0.9947379231452942,
        0.18786835670471191,
        0.9984932541847229
      ],
      "min": [
        -0.9947382211685181,
        -0.923556923866272,
        -0.915204644203186
      ],
      "type": "VEC3"
    },
    {
      "bufferView": 1,
      "byteOffset": 163264,
      "componentType": 5126,
      "count": 191,
      "max": [
        0.21940630674362183,
        0.12112796306610107
      ],
      "min": [
        0.00873488187789917,
        0.0046749114990234375
      ],
      "type": "VEC2"
    },
    {
      "bufferView": 0,
      "byteOffset": 170880,
      "componentType": 5125,
      "count": 936,
      "type": "SCALAR"
    },
    {
      "bufferView": 2,
      "byteOffset": 263616,
      "componentType": 5126,
      "count": 87,
      "max": [
        41.33152389526367,
        56.163177490234375,
        32.84003448486328
      ],
      "min": [
        -41.33155059814453,
        36.57415008544922,
        -88.11416625976563
      ],
      "type": "VEC3"
    },
    {
      "bufferView": 2,
      "byteOffset": 264660,
      "componentType": 5126,
      "count": 87,
      "max": [
        0.3411687910556793,
        1.1745904885174241e-05,
        0.594823956489563
      ],
      "min": [
        -0.3411697447299957,
        -0.8038647174835205,
        -0.9400128722190857
      ],
      "type": "VEC3"
    },
    {
      "bufferView": 1,
      "byteOffset": 164792,
      "componentType": 5126,
      "count": 87,
      "max": [
        0.9880490303039551,
        0.9878591299057007
      ],
      "min": [
        0.9774801135063171,
        0.9791871309280396
      ],
      "type": "VEC2"
    },
    {
      "bufferView": 0,
      "byteOffset": 174624,
      "componentType": 5125,
      "count": 150,
      "type": "SCALAR"
    },
    {
      "bufferView": 2,
      "byteOffset": 265704,
      "componentType": 5126,
      "count": 484,
      "max": [
        42.135250091552734,
        64.47840881347656,
        34.97751998901367
      ],
      "min": [
        -42.13527297973633,
        36.29275131225586,
        -88.65641784667969
      ],
      "type": "VEC3"
    },
    {
      "bufferView": 2,
      "byteOffset": 271512,
      "componentType": 5126,
      "count": 484,
      "max": [
        0.9995001554489136,
        1.0,
        0.9988069534301758
      ],
      "min": [
        -0.9994189143180847,
        -1.0,
        -0.9400263428688049
      ],
      "type": "VEC3"
    },
    {
      "bufferView": 1,
      "byteOffset": 165488,
      "componentType": 5126,
      "count": 484,
      "max": [
        0.8489190340042114,
        0.7499537467956543
      ],
      "min": [
        0.7380357980728149,
        0.7286441326141357
      ],
      "type": "VEC2"
    },
    {
      "bufferView": 0,
      "byteOffset": 175224,
      "componentType": 5125,
      "count": 1398,
      "type": "SCALAR"
    },
    {
      "bufferView": 2,
      "byteOffset": 277320,
      "componentType": 5126,
      "count": 83,
      "max": [
        16.74164390563965,
        23.8466796875,
        84.52751922607422
      ],
      "min": [
        -16.74164581298828,
        5.404989719390869,
        79.0282974243164
      ],
      "type": "VEC3"
    },
    {
      "bufferView": 2,
      "byteOffset": 278316,
      "componentType": 5126,
      "count": 83,
      "max": [
        0.42283371090888977,
        0.27425238490104675,
        0.996799886226654
      ],
      "min": [
        -0.4228413999080658,
        -0.5102329254150391,
        0.8564984798431396
      ],
      "type": "VEC3"
    },
    {
      "bufferView": 1,
      "byteOffset": 169360,
      "componentType": 5126,
      "count": 83,
      "max": [
        0.9097148776054382,
        0.7617132663726807
      ],
      "min": [
        0.6822381615638733,
        0.6715206503868103
      ],
      "type": "VEC2"
    },
    {
      "bufferView": 0,
      "byteOffset": 180816,
      "componentType": 5125,
      "count": 258,
      "type": "SCALAR"
    },
    {
      "bufferView": 2,
      "byteOffset": 279312,
      "componentType": 5126,
      "count": 221,
      "max": [
        34.71091079711914,
        24.464693069458008,
        82.7181167602539
      ],
      "min": [
        -34.71063232421875,
        -1.960403323173523,
        -88.48950958251953
      ],
      "type": "VEC3"
    },
    {
      "bufferView": 2,
      "byteOffset": 281964,
      "componentType": 5126,
      "count": 221,
      "max": [
        1.0,
        0.4323919713497162,
        0.9955605864524841
      ],
      "min": [
        -1.0,
        -1.0,
        -0.9974491000175476
      ],
      "type": "VEC3"
    },
    {
      "bufferView": 1,
      "byteOffset": 170024,
      "componentType": 5126,
      "count": 221,
      "max": [
        0.0,
        1.0
      ],
      "min": [
        0.0,
        1.0
      ],
      "type": "VEC2"
    },
    {
      "bufferView": 0,
      "byteOffset": 181848,
      "componentType": 5125,
      "count": 576,
      "type": "SCALAR"
    },
    {
      "bufferView": 2,
      "byteOffset": 284616,
      "componentType": 5126,
      "count": 206,
      "max": [
        34.639991760253906,
        35.387332916259766,
        12.205157279968262
      ],
      "min": [
        -34.640018463134766,
        25.280277252197266,
        -88.11725616455078
      ],
      "type": "VEC3"
    },
    {
      "bufferView": 2,
      "byteOffset": 287088,
      "componentType": 5126,
      "count": 206,
      "max": [
        0.9998573660850525,
        0.9034382104873657,
        0.5923694968223572
      ],
      "min": [
        -0.9998573064804077,
        -1.0,
        -0.8193210363388062
      ],
      "type": "VEC3"
    },
    {
      "bufferView": 1,
      "byteOffset": 171792,
      "componentType": 5126,
      "count": 206,
      "max": [
        0.8956910371780396,
        0.7851940393447876
      ],
      "min": [
        0.13770613074302673,
        0.009753942489624023
      ],
      "type": "VEC2"
    },
    {
      "bufferView": 0,
      "byteOffset": 184152,
      "componentType": 5125,
      "count": 1296,
      "type": "SCALAR"
    },
    {
      "bufferView": 2,
      "byteOffset": 289560,
      "componentType": 5126,
      "count": 357,
      "max": [
        28.471904754638672,
        40.472171783447266,
        62.396461486816406
      ],
      "min": [
        -24.80160140991211,
        35.95452117919922,
        -88.05802917480469
      ],
      "type": "VEC3"
    },
    {
      "bufferView": 2,
      "byteOffset": 293844,
      "componentType": 5126,
      "count": 357,
      "max": [
        0.9999696016311646,
        0.9786643385887146,
        0.9899925589561462
      ],
      "min": [
        -0.9999696016311646,
        -0.9911951422691345,
        -0.9908031821250916
      ],
      "type": "VEC3"
    },
    {
      "bufferView": 1,
      "byteOffset": 173440,
      "componentType": 5126,
      "count": 357,
      "max": [
        0.8303654193878174,
        0.7502094507217407
      ],
      "min": [
        0.7608434557914734,
        0.7466448545455933
      ],
      "type": "VEC2"
    },
    {
      "bufferView": 0,
      "byteOffset": 189336,
      "componentType": 5125,
      "count": 750,
      "type": "SCALAR"
    },
    {
      "bufferView": 2,
      "byteOffset": 298128,
      "componentType": 5126,
      "count": 544,
      "max": [
        35.23694610595703,
        60.211368560791016,
        60.14291763305664
      ],
      "min": [
        -35.23698425292969,
        32.96554946899414,
        -84.58380889892578
      ],
      "type": "VEC3"
    },
    {
      "bufferView": 2,
      "byteOffset": 304656,
      "componentType": 5126,
      "count": 544,
      "max": [
        0.983148455619812,
        0.9995899796485901,
        1.0
      ],
      "min": [
        -0.9831477999687195,
        -0.999943196773529,
        -0.999374508857727
      ],
      "type": "VEC3"
    },
    {
      "bufferView": 1,
      "byteOffset": 176296,
      "componentType": 5126,
      "count": 544,
      "max": [
        0.8398422002792358,
        0.7524692416191101
      ],
      "min": [
        0.7471125721931458,
        0.7318702340126038
      ],
      "type": "VEC2"
    },
    {
      "bufferView": 0,
      "byteOffset": 192336,
      "componentType": 5125,
      "count": 1254,
      "type": "SCALAR"
    },
    {
      "bufferView": 2,
      "byteOffset": 311184,
      "componentType": 5126,
      "count": 1088,
      "max": [
        34.71118927001953,
        27.217905044555664,
        85.60987854003906
      ],
      "min": [
        -34.71119689941406,
        0.8703981041908264,
        60.15620803833008
      ],
      "type": "VEC3"
    },
    {
      "bufferView": 2,
      "byteOffset": 324240,
      "componentType": 5126,
      "count": 1088,
      "max": [
        1.0,
        1.0,
        0.9999912977218628
      ],
      "min": [
        -1.0,
        -1.0,
        -0.05962643399834633
      ],
      "type": "VEC3"
    },
    {
      "bufferView": 1,
      "byteOffset": 180648,
      "componentType": 5126,
      "count": 1088,
      "max": [
        0.9953654408454895,
        0.6157186031341553
      ],
      "min": [
        0.02412891387939453,
        0.302315890789032
      ],
      "type": "VEC2"
    },
    {
      "bufferView": 0,
      "byteOffset": 197352,
      "componentType": 5125,
      "count": 3474,
      "type": "SCALAR"
    },
    {
      "bufferView": 2,
      "byteOffset": 337296,
      "componentType": 5126,
      "count": 1022,
      "max": [
        32.126827239990234,
        59.55103302001953,
        57.64480209350586
      ],
      "min": [
        -32.65179443359375,
        36.326236724853516,
        -86.67161560058594
      ],
      "type": "VEC3"
    },
    {
      "bufferView": 2,
      "byteOffset": 349560,
      "componentType": 5126,
      "count": 1022,
      "max": [
        0.9697686433792114,
        1.0,
        0.9999967813491821
      ],
      "min": [
        -0.9697696566581726,
        -0.9884741902351379,
        -1.0
      ],
      "type": "VEC3"
    },
    {
      "bufferView": 1,
      "byteOffset": 189352,
      "componentType": 5126,
      "count": 1022,
      "max": [
        0.9872808456420898,
        0.06767654418945313
      ],
      "min": [
        0.9853702187538147,
        0.061939895153045654
      ],
      "type": "VEC2"
    },
    {
      "bufferView": 0,
      "byteOffset": 211248,
      "componentType": 5125,
      "count": 3012,
      "type": "SCALAR"
    },
    {
      "bufferView": 2,
      "byteOffset": 361824,
      "componentType": 5126,
      "count": 1225,
      "max": [
        11.18244743347168,
        3.7619943618774414,
        11.182451248168945
      ],
      "min": [
        -11.182449340820313,
        -3.7619943618774414,
        -11.182445526123047
      ],
      "type": "VEC3"
    },
    {
      "bufferView": 2,
      "byteOffset": 376524,
      "componentType": 5126,
      "count": 1225,
      "max": [
        1.0,
        0.9962639808654785,
        1.0
      ],
      "min": [
        -1.0,
        -0.9962639808654785,
        -1.0
      ],
      "type": "VEC3"
    },
    {
      "bufferView": 3,
      "byteOffset": 58800,
      "componentType": 5126,
      "count": 1225,
      "max": [
        1.0,
        1.0,
        1.0,
        1.0
      ],
      "min": [
        -1.0,
        -1.0,
        -1.0,
        1.0
      ],
      "type": "VEC4"
    },
    {
      "bufferView": 1,
      "byteOffset": 197528,
      "componentType": 5126,
      "count": 1225,
      "max": [
        0.9998135566711426,
        5.675832271575928
      ],
      "min": [
        0.0,
        -9.799003601074219e-05
      ],
      "type": "VEC2"
    },
    {
      "bufferView": 1,
      "byteOffset": 207328,
      "componentType": 5126,
      "count": 1225,
      "max": [
        0.0,
        1.0
      ],
      "min": [
        0.0,
        1.0
      ],
      "type": "VEC2"
    },
    {
      "bufferView": 1,
      "byteOffset": 217128,
      "componentType": 5126,
      "count": 1225,
      "max": [
        0.9998135566711426,
        5.675832271575928
      ],
      "min": [
        0.0,
        -9.799003601074219e-05
      ],
      "type": "VEC2"
    },
    {
      "bufferView": 0,
      "byteOffset": 223296,
      "componentType": 5125,
      "count": 6144,
      "type": "SCALAR"
    },
    {
      "bufferView": 2,
      "byteOffset": 391224,
      "componentType": 5126,
      "count": 312,
      "max": [
        7.501824378967285,
        4.737704277038574,
        7.304874420166016
      ],
      "min": [
        -7.501824378967285,
        2.9983370304107666,
        -7.304874420166016
      ],
      "type": "VEC3"
    },
    {
      "bufferView": 2,
      "byteOffset": 394968,
      "componentType": 5126,
      "count": 312,
      "max": [
        0.958343505859375,
        1.0,
        0.9674771428108215
      ],
      "min": [
        -0.9583435654640198,
        0.2520565986633301,
        -0.9674767851829529
      ],
      "type": "VEC3"
    },
    {
      "bufferView": 1,
      "byteOffset": 226928,
      "componentType": 5126,
      "count": 312,
      "max": [
        0.0,
        1.0
      ],
      "min": [
        0.0,
        1.0
      ],
      "type": "VEC2"
    },
    {
      "bufferView": 1,
      "byteOffset": 229424,
      "componentType": 5126,
      "count": 312,
      "max": [
        0.0,
        1.0
      ],
      "min": [
        0.0,
        1.0
      ],
      "type": "VEC2"
    },
    {
      "bufferView": 0,
      "byteOffset": 247872,
      "componentType": 5125,
      "count": 828,
      "type": "SCALAR"
    },
    {
      "bufferView": 2,
      "byteOffset": 398712,
      "componentType": 5126,
      "count": 55,
      "max": [
        1.5033870935440063,
        5.532902717590332,
        1.480547547340393
      ],
      "min": [
        -1.5033873319625854,
        4.104600429534912,
        -1.4805477857589722
      ],
      "type": "VEC3"
    },
    {
      "bufferView": 2,
      "byteOffset": 399372,
      "componentType": 5126,
      "count": 55,
      "max": [
        0.9906550645828247,
        1.0,
        0.9756048917770386
      ],
      "min": [
        -0.9906550645828247,
        0.1363910436630249,
        -0.9756048917770386
      ],
      "type": "VEC3"
    },
    {
      "bufferView": 1,
      "byteOffset": 231920,
      "componentType": 5126,
      "count": 55,
      "max": [
        0.0,
        1.0
      ],
      "min": [
        0.0,
        1.0
      ],
      "type": "VEC2"
    },
    {
      "bufferView": 1,
      "byteOffset": 232360,
      "componentType": 5126,
      "count": 55,
      "max": [
        0.026034176349639893,
        0.9636077880859375
      ],
      "min": [
        0.026034146547317505,
        0.9636077284812927
      ],
      "type": "VEC2"
    },
    {
      "bufferView": 0,
      "byteOffset": 251184,
      "componentType": 5125,
      "count": 270,
      "type": "SCALAR"
    },
    {
      "bufferView": 2,
      "byteOffset": 400032,
      "componentType": 5126,
      "count": 388,
      "max": [
        2.4667458534240723,
        5.455676078796387,
        2.4667458534240723
      ],
      "min": [
        -2.4667463302612305,
        3.910555362701416,
        -2.4667463302612305
      ],
      "type": "VEC3"
    },
    {
      "bufferView": 2,
      "byteOffset": 404688,
      "componentType": 5126,
      "count": 388,
      "max": [
        1.0,
        1.0,
        1.0
      ],
      "min": [
        -1.0,
        -1.0169400184167898e-06,
        -1.0
      ],
      "type": "VEC3"
    },
    {
      "bufferView": 1,
      "byteOffset": 232800,
      "componentType": 5126,
      "count": 388,
      "max": [
        0.0,
        1.0
      ],
      "min": [
        0.0,
        1.0
      ],
      "type": "VEC2"
    },
    {
      "bufferView": 1,
      "byteOffset": 235904,
      "componentType": 5126,
      "count": 388,
      "max": [
        0.7149731516838074,
        0.606661319732666
      ],
      "min": [
        0.5987637639045715,
        0.5527868270874023
      ],
      "type": "VEC2"
    },
    {
      "bufferView": 0,
      "byteOffset": 252264,
      "componentType": 5125,
      "count": 1008,
      "type": "SCALAR"
    }
  ],
  "asset": {
    "extras": {
      "author": "OUTPISTON (https://sketchfab.com/outpiston)",
      "license": "CC-BY-NC-SA-4.0 (http://creativecommons.org/licenses/by-nc-sa/4.0/)",
      "source": "https://sketchfab.com/3d-models/2005-toyota-townace-gl-addecc78c3674fc4985b5f92fab46f91",
      "title": "2005 Toyota TownAce GL"
    },
    "generator": "Sketchfab-16.73.0",
    "version": "2.0"
  },
  "bufferViews": [
    {
      "buffer": 0,
      "byteLength": 256296,
      "name": "floatBufferViews",
      "target": 34963
    },
    {
      "buffer": 0,
      "byteLength": 239008,
      "byteOffset": 256296,
      "byteStride": 8,
      "name": "floatBufferViews",
      "target": 34962
    },
    {
      "buffer": 0,
      "byteLength": 409344,
      "byteOffset": 495304,
      "byteStride": 12,
      "name": "floatBufferViews",
      "target": 34962
    },
    {
      "buffer": 0,
      "byteLength": 78400,
      "byteOffset": 904648,
      "byteStride": 16,
      "name": "floatBufferViews",
      "target": 34962
    }
  ],
  "buffers": [
    {
      "byteLength": 983048,
      "uri": "scene.bin"
    }
  ],
  "extensionsUsed": [
    "KHR_materials_transmission"
  ],
  "images": [
    {
      "uri": "textures/Material.009_baseColor.jpeg"
    },
    {
      "uri": "textures/Material.009_normal.jpeg"
    },
    {
      "uri": "textures/Material.010_baseColor.png"
    },
    {
      "uri": "textures/Material.002_baseColor.png"
    },
    {
      "uri": "textures/Material.006_baseColor.png"
    },
    {
      "uri": "textures/Material_baseColor.png"
    },
    {
      "uri": "textures/Material.011_baseColor.png"
    },
    {
      "uri": "textures/Material.003_baseColor.png"
    },
    {
      "uri": "textures/Material.001_baseColor.png"
    }
  ],
  "materials": [
    {
      "doubleSided": true,
      "name": "material_0",
      "pbrMetallicRoughness": {
        "metallicFactor": 0.0,
        "roughnessFactor": 0.6
      }
    },
    {
      "doubleSided": true,
      "name": "Material.009",
      "normalTexture": {
        "index": 1
      },
      "pbrMetallicRoughness": {
        "baseColorTexture": {
          "index": 0
        },
        "metallicFactor": 0.0,
        "roughnessFactor": 0.5
      }
    },
    {
      "doubleSided": true,
      "name": "Material.007",
      "pbrMetallicRoughness": {
        "baseColorFactor": [
          0.8,
          0.8,
          0.8,
          1.0
        ],
        "roughnessFactor": 0.5
      }
    },
    {
      "doubleSided": true,
      "name": "Material.010",
      "pbrMetallicRoughness": {
        "baseColorTexture": {
          "index": 2
        },
        "roughnessFactor": 0.5
      }
    },
    {
      "doubleSided": true,
      "name": "Material.008",
      "pbrMetallicRoughness": {
        "baseColorTexture": {
          "index": 2
        },
        "roughnessFactor": 0.5
      }
    },
    {
      "doubleSided": true,
      "name": "Material.002",
      "pbrMetallicRoughness": {
        "baseColorTexture": {
          "index": 3
        },
        "metallicFactor": 0.0,
        "roughnessFactor": 0.0
      }
    },
    {
      "doubleSided": true,
      "name": "Material.006",
      "pbrMetallicRoughness": {
        "baseColorTexture": {
          "index": 4
        },
        "metallicFactor": 0.0,
        "roughnessFactor": 0.0
      }
    },
    {
      "doubleSided": true,
      "name": "Material",
      "pbrMetallicRoughness": {
        "baseColorTexture": {
          "index": 5
        },
        "metallicFactor": 0.0,
        "roughnessFactor": 0.5
      }
    },
    {
      "doubleSided": true,
      "name": "Material.011",
      "pbrMetallicRoughness": {
        "baseColorTexture": {
          "index": 6
        },
        "metallicFactor": 0.0
      }
    },
    {
      "doubleSided": true,
      "name": "Material.012",
      "pbrMetallicRoughness": {
        "baseColorTexture": {
          "index": 6
        },
        "metallicFactor": 0.0,
        "roughnessFactor": 0.0
      }
    },
    {
      "doubleSided": true,
      "name": "Material.003",
      "pbrMetallicRoughness": {
        "baseColorTexture": {
          "index": 7
        },
        "metallicFactor": 0.0,
        "roughnessFactor": 0.0
      }
    },
    {
      "alphaMode": "MASK",
      "doubleSided": true,
      "name": "Material.001",
      "pbrMetallicRoughness": {
        "baseColorTexture": {
          "index": 8
        },
        "metallicFactor": 0.0,
        "roughnessFactor": 0.0
      }
    },
    {
      "doubleSided": true,
      "name": "Material.005",
      "pbrMetallicRoughness": {
        "baseColorFactor": [
          0.8,
          0.8,
          0.8,
          1.0
        ],
        "roughnessFactor": 0.0
      }
    },
    {
      "alphaMode": "BLEND",
      "doubleSided": true,
      "extensions": {
        "KHR_materials_transmission": {
          "transmissionFactor": 1.0
        }
      },
      "name": "Material.004",
      "pbrMetallicRoughness": {
        "baseColorFactor": [
          0.8,
          0.8,
          0.8,
          0.25
        ],
        "metallicFactor": 0.0,
        "roughnessFactor": 0.0
      }
    }
  ],
  "meshes": [
    {
      "name": "Object_0",
      "primitives": [
        {
          "attributes": {
            "NORMAL": 1,
            "POSITION": 0,
            "TANGENT": 2,
            "TEXCOORD_0": 3,
            "TEXCOORD_1": 4,
            "TEXCOORD_2": 5
          },
          "indices": 6,
          "material": 1,
          "mode": 4
        }
      ]
    },
    {
      "name": "Object_1",
      "primitives": [
        {
          "attributes": {
            "NORMAL": 8,
            "POSITION": 7,
            "TEXCOORD_0": 9,
            "TEXCOORD_1": 10
          },
          "indices": 11,
          "material": 2,
          "mode": 4
        }
      ]
    },
    {
      "name": "Object_2",
      "primitives": [
        {
          "attributes": {
            "NORMAL": 13,
            "POSITION": 12,
            "TEXCOORD_0": 14,
            "TEXCOORD_1": 15
          },
          "indices": 16,
          "material": 3,
          "mode": 4
        }
      ]
    },
    {
      "name": "Object_3",
      "primitives": [
        {
          "attributes": {
            "NORMAL": 18,
            "POSITION": 17,
            "TEXCOORD_0": 19,
            "TEXCOORD_1": 20
          },
          "indices": 21,
          "material": 4,
          "mode": 4
        }
      ]
    },
    {
      "name": "Object_4",
      "primitives": [
        {
          "attributes": {
            "NORMAL": 23,
            "POSITION": 22,
            "TANGENT": 24,
            "TEXCOORD_0": 25,
            "TEXCOORD_1": 26,
            "TEXCOORD_2": 27
          },
          "indices": 28,
          "material": 1,
          "mode": 4
        }
      ]
    },
    {
      "name": "Object_5",
      "primitives": [
        {
          "attributes": {
            "NORMAL": 30,
            "POSITION": 29,
            "TEXCOORD_0": 31,
            "TEXCOORD_1": 32
          },
          "indices": 33,
          "material": 2,
          "mode": 4
        }
      ]
    },
    {
      "name": "Object_6",
      "primitives": [
        {
          "attributes": {
            "NORMAL": 35,
            "POSITION": 34,
            "TEXCOORD_0": 36,
            "TEXCOORD_1": 37
          },
          "indices": 38,
          "material": 3,
          "mode": 4
        }
      ]
    },
    {
      "name": "Object_7",
      "primitives": [
        {
          "attributes": {
            "NORMAL": 40,
            "POSITION": 39,
            "TEXCOORD_0": 41,
            "TEXCOORD_1": 42
          },
          "indices": 43,
          "material": 4,
          "mode": 4
        }
      ]
    },
    {
      "name": "Object_8",
      "primitives": [
        {
          "attributes": {
            "NORMAL": 45,
            "POSITION": 44,
            "TANGENT": 46,
            "TEXCOORD_0": 47,
            "TEXCOORD_1": 48,
            "TEXCOORD_2": 49
          },
          "indices": 50,
          "material": 1,
          "mode": 4
        }
      ]
    },
    {
      "name": "Object_9",
      "primitives": [
        {
          "attributes": {
            "NORMAL": 52,
            "POSITION": 51,
            "TEXCOORD_0": 53,
            "TEXCOORD_1": 54
          },
          "indices": 55,
          "material": 2,
          "mode": 4
        }
      ]
    },
    {
      "name": "Object_10",
      "primitives": [
        {
          "attributes": {
            "NORMAL": 57,
            "POSITION": 56,
            "TEXCOORD_0": 58,
            "TEXCOORD_1": 59
          },
          "indices": 60,
          "material": 3,
          "mode": 4
        }
      ]
    },
    {
      "name": "Object_11",
      "primitives": [
        {
          "attributes": {
            "NORMAL": 62,
            "POSITION": 61,
            "TEXCOORD_0": 63,
            "TEXCOORD_1": 64
          },
          "indices": 65,
          "material": 4,
          "mode": 4
        }
      ]
    },
    {
      "name": "Object_12",
      "primitives": [
        {
          "attributes": {
            "NORMAL": 67,
            "POSITION": 66,
            "TEXCOORD_0": 68
          },
          "indices": 69,
          "material": 5,
          "mode": 4
        }
      ]
    },
    {
      "name": "Object_13",
      "primitives": [
        {
          "attributes": {
            "NORMAL": 71,
            "POSITION": 70,
            "TEXCOORD_0": 72
          },
          "indices": 73,
          "material": 6,
          "mode": 4
        }
      ]
    },
    {
      "name": "Object_14",
      "primitives": [
        {
          "attributes": {
            "NORMAL": 75,
            "POSITION": 74,
            "TEXCOORD_0": 76
          },
          "indices": 77,
          "material": 7,
          "mode": 4
        }
      ]
    },
    {
      "name": "Object_15",
      "primitives": [
        {
          "attributes": {
            "NORMAL": 79,
            "POSITION": 78,
            "TEXCOORD_0": 80
          },
          "indices": 81,
          "material": 8,
          "mode": 4
        }
      ]
    },
    {
      "name": "Object_16",
      "primitives": [
        {
          "attributes": {
            "NORMAL": 83,
            "POSITION": 82,
            "TEXCOORD_0": 84
          },
          "indices": 85,
          "material": 8,
          "mode": 4
        }
      ]
    },
    {
      "name": "Object_17",
      "primitives": [
        {
          "attributes": {
            "NORMAL": 87,
            "POSITION": 86,
            "TEXCOORD_0": 88
          },
          "indices": 89,
          "material": 8,
          "mode": 4
        }
      ]
    },
    {
      "name": "Object_18",
      "primitives": [
        {
          "attributes": {
            "NORMAL": 91,
            "POSITION": 90,
            "TEXCOORD_0": 92
          },
          "indices": 93,
          "material": 0,
          "mode": 4
        }
      ]
    },
    {
      "name": "Object_19",
      "primitives": [
        {
          "attributes": {
            "NORMAL": 95,
            "POSITION": 94,
            "TEXCOORD_0": 96
          },
          "indices": 97,
          "material": 0,
          "mode": 4
        }
      ]
    },
    {
      "name": "Object_20",
      "primitives": [
        {
          "attributes": {
            "NORMAL": 99,
            "POSITION": 98,
            "TEXCOORD_0": 100
          },
          "indices": 101,
          "material": 9,
          "mode": 4
        }
      ]
    },
    {
      "name": "Object_21",
      "primitives": [
        {
          "attributes": {
            "NORMAL": 103,
            "POSITION": 102,
            "TEXCOORD_0": 104
          },
          "indices": 105,
          "material": 8,
          "mode": 4
        }
      ]
    },
    {
      "name": "Object_22",
      "primitives": [
        {
          "attributes": {
            "NORMAL": 107,
            "POSITION": 106,
            "TEXCOORD_0": 108
          },
          "indices": 109,
          "material": 8,
          "mode": 4
        }
      ]
    },
    {
      "name": "Object_23",
      "primitives": [
        {
          "attributes": {
            "NORMAL": 111,
            "POSITION": 110,
            "TEXCOORD_0": 112
          },
          "indices": 113,
          "material": 7,
          "mode": 4
        }
      ]
    },
    {
      "name": "Object_24",
      "primitives": [
        {
          "attributes": {
            "NORMAL": 115,
            "POSITION": 114,
            "TEXCOORD_0": 116
          },
          "indices": 117,
          "material": 7,
          "mode": 4
        }
      ]
    },
    {
      "name": "Object_25",
      "primitives": [
        {
          "attributes": {
            "NORMAL": 119,
            "POSITION": 118,
            "TEXCOORD_0": 120
          },
          "indices": 121,
          "material": 0,
          "mode": 4
        }
      ]
    },
    {
      "name": "Object_26",
      "primitives": [
        {
          "attributes": {
            "NORMAL": 123,
            "POSITION": 122,
            "TEXCOORD_0": 124
          },
          "indices": 125,
          "material": 10,
          "mode": 4
        }
      ]
    },
    {
      "name": "Object_27",
      "primitives": [
        {
          "attributes": {
            "NORMAL": 127,
            "POSITION": 126,
            "TEXCOORD_0": 128
          },
          "indices": 129,
          "material": 10,
          "mode": 4
        }
      ]
    },
    {
      "name": "Object_28",
      "primitives": [
        {
          "attributes": {
            "NORMAL": 131,
            "POSITION": 130,
            "TEXCOORD_0": 132
          },
          "indices": 133,
          "material": 7,
          "mode": 4
        }
      ]
    },
    {
      "name": "Object_29",
      "primitives": [
        {
          "attributes": {
            "NORMAL": 135,
            "POSITION": 134,
            "TEXCOORD_0": 136
          },
          "indices": 137,
          "material": 11,
          "mode": 4
        }
      ]
    },
    {
      "name": "Object_30",
      "primitives": [
        {
          "attributes": {
            "NORMAL": 139,
            "POSITION": 138,
            "TEXCOORD_0": 140
          },
          "indices": 141,
          "material": 6,
          "mode": 4
        }
      ]
    },
    {
      "name": "Object_31",
      "primitives": [
        {
          "attributes": {
            "NORMAL": 143,
            "POSITION": 142,
            "TEXCOORD_0": 144
          },
          "indices": 145,
          "material": 7,
          "mode": 4
        }
      ]
    },
    {
      "name": "Object_32",
      "primitives": [
        {
          "attributes": {
            "NORMAL": 147,
            "POSITION": 146,
            "TEXCOORD_0": 148
          },
          "indices": 149,
          "material": 7,
          "mode": 4
        }
      ]
    },
    {
      "name": "Object_33",
      "primitives": [
        {
          "attributes": {
            "NORMAL": 151,
            "POSITION": 150,
            "TEXCOORD_0": 152
          },
          "indices": 153,
          "material": 7,
          "mode": 4
        }
      ]
    },
    {
      "name": "Object_34",
      "primitives": [
        {
          "attributes": {
            "NORMAL": 155,
            "POSITION": 154,
            "TEXCOORD_0": 156
          },
          "indices": 157,
          "material": 7,
          "mode": 4
        }
      ]
    },
    {
      "name": "Object_35",
      "primitives": [
        {
          "attributes": {
            "NORMAL": 159,
            "POSITION": 158,
            "TEXCOORD_0": 160
          },
          "indices": 161,
          "material": 12,
          "mode": 4
        }
      ]
    },
    {
      "name": "Object_36",
      "primitives": [
        {
          "attributes": {
            "NORMAL": 163,
            "POSITION": 162,
            "TEXCOORD_0": 164
          },
          "indices": 165,
          "material": 7,
          "mode": 4
        }
      ]
    },
    {
      "name": "Object_37",
      "primitives": [
        {
          "attributes": {
            "NORMAL": 167,
            "POSITION": 166,
            "TEXCOORD_0": 168
          },
          "indices": 169,
          "material": 7,
          "mode": 4
        }
      ]
    },
    {
      "name": "Object_38",
      "primitives": [
        {
          "attributes": {
            "NORMAL": 171,
            "POSITION": 170,
            "TEXCOORD_0": 172
          },
          "indices": 173,
          "material": 7,
          "mode": 4
        }
      ]
    },
    {
      "name": "Object_39",
      "primitives": [
        {
          "attributes": {
            "NORMAL": 175,
            "POSITION": 174,
            "TEXCOORD_0": 176
          },
          "indices": 177,
          "material": 7,
          "mode": 4
        }
      ]
    },
    {
      "name": "Object_40",
      "primitives": [
        {
          "attributes": {
            "NORMAL": 179,
            "POSITION": 178,
            "TEXCOORD_0": 180
          },
          "indices": 181,
          "material": 7,
          "mode": 4
        }
      ]
    },
    {
      "name": "Object_41",
      "primitives": [
        {
          "attributes": {
            "NORMAL": 183,
            "POSITION": 182,
            "TEXCOORD_0": 184
          },
          "indices": 185,
          "material": 7,
          "mode": 4
        }
      ]
    },
    {
      "name": "Object_42",
      "primitives": [
        {
          "attributes": {
            "NORMAL": 187,
            "POSITION": 186,
            "TEXCOORD_0": 188
          },
          "indices": 189,
          "material": 7,
          "mode": 4
        }
      ]
    },
    {
      "name": "Object_43",
      "primitives": [
        {
          "attributes": {
            "NORMAL": 191,
            "POSITION": 190,
            "TEXCOORD_0": 192
          },
          "indices": 193,
          "material": 13,
          "mode": 4
        }
      ]
    },
    {
      "name": "Object_44",
      "primitives": [
        {
          "attributes": {
            "NORMAL": 195,
            "POSITION": 194,
            "TANGENT": 196,
            "TEXCOORD_0": 197,
            "TEXCOORD_1": 198,
            "TEXCOORD_2": 199
          },
          "indices": 200,
          "material": 1,
          "mode": 4
        }
      ]
    },
    {
      "name": "Object_45",
      "primitives": [
        {
          "attributes": {
            "NORMAL": 202,
            "POSITION": 201,
            "TEXCOORD_0": 203,
            "TEXCOORD_1": 204
          },
          "indices": 205,
          "material": 2,
          "mode": 4
        }
      ]
    },
    {
      "name": "Object_46",
      "primitives": [
        {
          "attributes": {
            "NORMAL": 207,
            "POSITION": 206,
            "TEXCOORD_0": 208,
            "TEXCOORD_1": 209
          },
          "indices": 210,
          "material": 3,
          "mode": 4
        }
      ]
    },
    {
      "name": "Object_47",
      "primitives": [
        {
          "attributes": {
            "NORMAL": 212,
            "POSITION": 211,
            "TEXCOORD_0": 213,
            "TEXCOORD_1": 214
          },
          "indices": 215,
          "material": 4,
          "mode": 4
        }
      ]
    }
  ],
  "nodes": [
    {
      "children": [
        1
      ],
      "matrix": [
        1.0,
        0.0,
        0.0,
        0.0,
        0.0,
        2.220446049250313e-16,
        -1.0,
        0.0,
        0.0,
        1.0,
        2.220446049250313e-16,
        0.0,
        0.0,
        0.0,
        0.0,
        1.0
      ],
      "name": "Sketchfab_model"
    },
    {
      "children": [
        2
      ],
      "name": "root"
    },
    {
      "children": [
        3,
        8,
        13,
        18,
        20,
        22,
        24,
        26,
        28,
        30,
        32,
        34,
        36,
        38,
        40,
        42,
        44,
        46,
        48,
        50,
        52,
        54,
        56,
        58,
        60,
        62,
        64,
        66,
        68,
        70,
        72,
        74,
        76,
        78,
        80,
        82
      ],
      "matrix": [
        1.0,
        0.0,
        0.0,
        0.0,
        0.0,
        2.220446049250313e-16,
        1.0,
        0.0,
        0.0,
        -1.0,
        2.220446049250313e-16,
        0.0,
        0.0,
        0.0,
        0.0,
        1.0
      ],
      "name": "GLTF_SceneRootNode"
    },
    {
      "children": [
        4,
        5,
        6,
        7
      ],
      "matrix": [
        0.0,
        -0.0,
        -0.028808211907744408,
        -0.0,
        -0.028808211907744408,
        -0.0,
        -0.0,
        -0.0,
        0.0,
        -0.028808211907744408,
        -0.0,
        -0.0,
        -0.7300000190734863,
        0.06499812006950378,
        1.3575446605682373,
        1.0
      ],
      "name": "Cylinder.003_0"
    },
    {
      "mesh": 0,
      "name": "Object_4"
    },
    {
      "mesh": 1,
      "name": "Object_5"
    },
    {
      "mesh": 2,
      "name": "Object_6"
    },
    {
      "mesh": 3,
      "name": "Object_7"
    },
    {
      "children": [
        9,
        10,
        11,
        12
      ],
      "matrix": [
        0.0,
        -0.0,
        -0.028808211907744408,
        -0.0,
        -0.028808211907744408,
        -0.0,
        0.0,
        -0.0,
        0.0,
        -0.028808211907744408,
        0.0,
        -0.0,
        -0.7300000190734863,
        0.06499812006950378,
        -1.3583965301513672,
        1.0
      ],
      "name": "Cylinder.002_1"
    },
    {
      "mesh": 4,
      "name": "Object_9"
    },
    {
      "mesh": 5,
      "name": "Object_10"
    },
    {
      "mesh": 6,
      "name": "Object_11"
    },
    {
      "mesh": 7,
      "name": "Object_12"
    },
    {
      "children": [
        14,
        15,
        16,
        17
      ],
      "matrix": [
        0.0,
        0.0,
        -0.028808211907744408,
        0.0,
        0.028808211907744408,
        0.0,
        0.0,
        0.0,
        0.0,
        -0.028808211907744408,
        0.0,
        0.0,
        0.7300000190734863,
        0.06499812006950378,
        -1.3583965301513672,
        1.0
      ],
      "name": "Cylinder.001_2"
    },
    {
      "mesh": 8,
      "name": "Object_14"
    },
    {
      "mesh": 9,
      "name": "Object_15"
    },
    {
      "mesh": 10,
      "name": "Object_16"
    },
    {
      "mesh": 11,
      "name": "Object_17"
    },
    {
      "children": [
        19
      ],
      "matrix": [
        0.02539999969303608,
        0.0,
        0.0,
        0.0,
        0.0,
        0.02539999969303608,
        0.0,
        0.0,
        0.0,
        0.0,
        0.02539999969303608,
        0.0,
        0.0,
        0.0,
        0.0,
        1.0
      ],
      "name": "tlmg00_0Shape0.component[0]_27"
    },
    {
      "mesh": 12,
      "name": "Object_19"
    },
    {
      "children": [
        21
      ],
      "matrix": [
        0.02539999969303608,
        0.0,
        0.0,
        0.0,
        0.0,
        0.02539999969303608,
        0.0,
        0.0,
        0.0,
        0.0,
        0.02539999969303608,
        0.0,
        0.0,
        0.0,
        0.0,
        1.0
      ],
      "name": "hlmg00_0Shape0.component[0]_28"
    },
    {
      "mesh": 13,
      "name": "Object_21"
    },
    {
      "children": [
        23
      ],
      "matrix": [
        0.02539999969303608,
        0.0,
        0.0,
        0.0,
        0.0,
        0.02539999969303608,
        0.0,
        0.0,
        0.0,
        0.0,
        0.02539999969303608,
        0.0,
        0.0,
        0.0,
        0.0,
        1.0
      ],
      "name": "rsmg10_0Shape0.component[0]_29"
    },
    {
      "mesh": 14,
      "name": "Object_23"
    },
    {
      "children": [
        25
      ],
      "matrix": [
        0.02539999969303608,
        0.0,
        0.0,
        0.0,
        0.0,
        0.024323865080246324,
        0.007315030183572884,
        0.0,
        0.0,
        -0.007315030183572884,
        0.024323865080246324,
        0.0,
        -0.3936506509780884,
        0.9421640634536743,
        0.6006214618682861,
        1.0
      ],
      "name": "st00Shape.component[0]_30"
    },
    {
      "mesh": 15,
      "name": "Object_25"
    },
    {
      "children": [
        27
      ],
      "matrix": [
        0.02539999969303608,
        0.0,
        0.0,
        0.0,
        0.0,
        0.02539999969303608,
        0.0,
        0.0,
        0.0,
        0.0,
        0.02539999969303608,
        0.0,
        0.0,
        0.0,
        0.0,
        1.0
      ],
      "name": "inmg00_0Shape8.component[0]_31"
    },
    {
      "mesh": 16,
      "name": "Object_27"
    },
    {
      "children": [
        29
      ],
      "matrix": [
        0.02539999969303608,
        0.0,
        0.0,
        0.0,
        0.0,
        0.02539999969303608,
        0.0,
        0.0,
        0.0,
        0.0,
        0.02539999969303608,
        0.0,
        0.0,
        0.0,
        0.0,
        1.0
      ],
      "name": "inmg00_0Shape7.component[0]_32"
    },
    {
      "mesh": 17,
      "name": "Object_29"
    },
    {
      "children": [
        31
      ],
      "matrix": [
        0.02539999969303608,
        0.0,
        0.0,
        0.0,
        0.0,
        0.02539999969303608,
        0.0,
        0.0,
        0.0,
        0.0,
        0.02539999969303608,
        0.0,
        0.0,
        0.0,
        0.0,
        1.0
      ],
      "name": "inmg00_0Shape5.component[0]_33"
    },
    {
      "mesh": 18,
      "name": "Object_31"
    },
    {
      "children": [
        33
      ],
      "matrix": [
        0.02539999969303608,
        0.0,
        0.0,
        0.0,
        0.0,
        0.02539999969303608,
        0.0,
        0.0,
        0.0,
        0.0,
        0.02539999969303608,
        0.0,
        0.0,
        0.0,
        0.0,
        1.0
      ],
      "name": "inmg00_0Shape3.component[0]_34"
    },
    {
      "mesh": 19,
      "name": "Object_33"
    },
    {
      "children": [
        35
      ],
      "matrix": [
        0.02539999969303608,
        0.0,
        0.0,
        0.0,
        0.0,
        0.02539999969303608,
        0.0,
        0.0,
        0.0,
        0.0,
        0.02539999969303608,
        0.0,
        0.0,
        0.0,
        0.0,
        1.0
      ],
      "name": "inmg00_0Shape2.component[0]_35"
    },
    {
      "mesh": 20,
      "name": "Object_35"
    },
    {
      "children": [
        37
      ],
      "matrix": [
        0.02539999969303608,
        0.0,
        0.0,
        0.0,
        0.0,
        0.02539999969303608,
        0.0,
        0.0,
        0.0,
        0.0,
        0.02539999969303608,
        0.0,
        0.0,
        0.0,
        0.0,
        1.0
      ],
      "name": "inmg00_0Shape1.component[0]_36"
    },
    {
      "mesh": 21,
      "name": "Object_37"
    },
    {
      "children": [
        39
      ],
      "matrix": [
        0.02539999969303608,
        0.0,
        0.0,
        0.0,
        0.0,
        0.02539999969303608,
        0.0,
        0.0,
        0.0,
        0.0,
        0.02539999969303608,
        0.0,
        0.0,
        0.0,
        0.0,
        1.0
      ],
      "name": "inmg00_0Shape0.component[0]_37"
    },
    {
      "mesh": 22,
      "name": "Object_39"
    },
    {
      "children": [
        41
      ],
      "matrix": [
        0.02539999969303608,
        0.0,
        0.0,
        0.0,
        0.0,
        0.02539999969303608,
        0.0,
        0.0,
        0.0,
        0.0,
        0.02539999969303608,
        0.0,
        0.0,
        0.0,
        0.0,
        1.0
      ],
      "name": "bnmg00_0Shape0.component[0]_38"
    },
    {
      "mesh": 23,
      "name": "Object_41"
    },
    {
      "children": [
        43
      ],
      "matrix": [
        0.02539999969303608,
        0.0,
        0.0,
        0.0,
        0.0,
        0.02539999969303608,
        0.0,
        0.0,
        0.0,
        0.0,
        0.02539999969303608,
        0.0,
        0.0,
        0.0,
        0.0,
        1.0
      ],
      "name": "mf00_pShape10.component[1]_39"
    },
    {
      "mesh": 24,
      "name": "Object_43"
    },
    {
      "children": [
        45
      ],
      "matrix": [
        0.02539999969303608,
        0.0,
        0.0,
        0.0,
        0.0,
        0.02539999969303608,
        0.0,
        0.0,
        0.0,
        0.0,
        0.02539999969303608,
        0.0,
        0.0,
        0.0,
        0.0,
        1.0
      ],
      "name": "mf00_pShape10.component[0]_40"
    },
    {
      "mesh": 25,
      "name": "Object_45"
    },
    {
      "children": [
        47
      ],
      "matrix": [
        0.02539999969303608,
        0.0,
        0.0,
        0.0,
        0.0,
        0.02539999969303608,
        0.0,
        0.0,
        0.0,
        0.0,
        0.02539999969303608,
        0.0,
        0.0,
        0.0,
        0.0,
        1.0
      ],
      "name": "fb00num_RShape.component[0]_41"
    },
    {
      "mesh": 26,
      "name": "Object_47"
    },
    {
      "children": [
        49
      ],
      "matrix": [
        0.02539999969303608,
        0.0,
        0.0,
        0.0,
        0.0,
        0.02539999969303608,
        0.0,
        0.0,
        0.0,
        0.0,
        0.02539999969303608,
        0.0,
        0.0,
        0.0,
        0.0,
        1.0
      ],
      "name": "fb00num_cShape.component[0]_42"
    },
    {
      "mesh": 27,
      "name": "Object_49"
    },
    {
      "children": [
        51
      ],
      "matrix": [
        0.02539999969303608,
        0.0,
        0.0,
        0.0,
        0.0,
        0.02539999969303608,
        0.0,
        0.0,
        0.0,
        0.0,
        0.02539999969303608,
        0.0,
        0.0,
        0.0,
        0.0,
        1.0
      ],
      "name": "fnmg00_0Shape0.component[0]_43"
    },
    {
      "mesh": 28,
      "name": "Object_51"
    },
    {
      "children": [
        53
      ],
      "matrix": [
        0.02539999969303608,
        0.0,
        0.0,
        0.0,
        0.0,
        0.02539999969303608,
        0.0,
        0.0,
        0.0,
        0.0,
        0.02539999969303608,
        0.0,
        0.0,
        0.0,
        0.0,
        1.0
      ],
      "name": "fn00punchShape.component[0]_44"
    },
    {
      "mesh": 29,
      "name": "Object_53"
    },
    {
      "children": [
        55
      ],
      "matrix": [
        0.02539999969303608,
        0.0,
        0.0,
        0.0,
        0.0,
        0.02539999969303608,
        0.0,
        0.0,
        0.0,
        0.0,
        0.02539999969303608,
        0.0,
        0.0,
        0.0,
        0.0,
        1.0
      ],
      "name": "fnmg00_Shape13.component[0]_45"
    },
    {
      "mesh": 30,
      "name": "Object_55"
    },
    {
      "children": [
        57
      ],
      "matrix": [
        0.02539999969303608,
        0.0,
        0.0,
        0.0,
        0.0,
        0.02539999969303608,
        0.0,
        0.0,
        0.0,
        0.0,
        0.02539999969303608,
        0.0,
        0.0,
        0.0,
        0.0,
        1.0
      ],
      "name": "fnmg00_Shape12.component[0]_46"
    },
    {
      "mesh": 31,
      "name": "Object_57"
    },
    {
      "children": [
        59
      ],
      "matrix": [
        0.02539999969303608,
        0.0,
        0.0,
        0.0,
        0.0,
        0.02539999969303608,
        0.0,
        0.0,
        0.0,
        0.0,
        0.02539999969303608,
        0.0,
        0.0,
        0.0,
        0.0,
        1.0
      ],
      "name": "fnmg00_Shape11.component[0]_47"
    },
    {
      "mesh": 32,
      "name": "Object_59"
    },
    {
      "children": [
        61
      ],
      "matrix": [
        0.02539999969303608,
        0.0,
        0.0,
        0.0,
        0.0,
        0.02539999969303608,
        0.0,
        0.0,
        0.0,
        0.0,
        0.02539999969303608,
        0.0,
        0.0,
        0.0,
        0.0,
        1.0
      ],
      "name": "fnmg00_Shape10.component[0]_48"
    },
    {
      "mesh": 33,
      "name": "Object_61"
    },
    {
      "children": [
        63
      ],
      "matrix": [
        0.02539999969303608,
        0.0,
        0.0,
        0.0,
        0.0,
        0.02539999969303608,
        0.0,
        0.0,
        0.0,
        0.0,
        0.02539999969303608,
        0.0,
        0.0,
        0.0,
        0.0,
        1.0
      ],
      "name": "fnmg00_0Shape9.component[0]_49"
    },
    {
      "mesh": 34,
      "name": "Object_63"
    },
    {
      "children": [
        65
      ],
      "matrix": [
        0.02539999969303608,
        0.0,
        0.0,
        0.0,
        0.0,
        0.02539999969303608,
        0.0,
        0.0,
        0.0,
        0.0,
        0.02539999969303608,
        0.0,
        0.0,
        0.0,
        0.0,
        1.0
      ],
      "name": "fnmg00_0Shape8.component[0]_50"
    },
    {
      "mesh": 35,
      "name": "Object_65"
    },
    {
      "children": [
        67
      ],
      "matrix": [
        0.02539999969303608,
        0.0,
        0.0,
        0.0,
        0.0,
        0.02539999969303608,
        0.0,
        0.0,
        0.0,
        0.0,
        0.02539999969303608,
        0.0,
        0.0,
        0.0,
        0.0,
        1.0
      ],
      "name": "fnmg00_0Shape7.component[0]_51"
    },
    {
      "mesh": 36,
      "name": "Object_67"
    },
    {
      "children": [
        69
      ],
      "matrix": [
        0.02539999969303608,
        0.0,
        0.0,
        0.0,
        0.0,
        0.02539999969303608,
        0.0,
        0.0,
        0.0,
        0.0,
        0.02539999969303608,
        0.0,
        0.0,
        0.0,
        0.0,
        1.0
      ],
      "name": "fnmg00_0Shape6.component[0]_52"
    },
    {
      "mesh": 37,
      "name": "Object_69"
    },
    {
      "children": [
        71
      ],
      "matrix": [
        0.02539999969303608,
        0.0,
        0.0,
        0.0,
        0.0,
        0.02539999969303608,
        0.0,
        0.0,
        0.0,
        0.0,
        0.02539999969303608,
        0.0,
        0.0,
        0.0,
        0.0,
        1.0
      ],
      "name": "fnmg00_0Shape5.component[0]_53"
    },
    {
      "mesh": 38,
      "name": "Object_71"
    },
    {
      "children": [
        73
      ],
      "matrix": [
        0.02539999969303608,
        0.0,
        0.0,
        0.0,
        0.0,
        0.02539999969303608,
        0.0,
        0.0,
        0.0,
        0.0,
        0.02539999969303608,
        0.0,
        0.0,
        0.0,
        0.0,
        1.0
      ],
      "name": "fnmg00_0Shape4.component[0]_54"
    },
    {
      "mesh": 39,
      "name": "Object_73"
    },
    {
      "children": [
        75
      ],
      "matrix": [
        0.02539999969303608,
        0.0,
        0.0,
        0.0,
        0.0,
        0.02539999969303608,
        0.0,
        0.0,
        0.0,
        0.0,
        0.02539999969303608,
        0.0,
        0.0,
        0.0,
        0.0,
        1.0
      ],
      "name": "fnmg00_0Shape3.component[0]_55"
    },
    {
      "mesh": 40,
      "name": "Object_75"
    },
    {
      "children": [
        77
      ],
      "matrix": [
        0.02539999969303608,
        0.0,
        0.0,
        0.0,
        0.0,
        0.02539999969303608,
        0.0,
        0.0,
        0.0,
        0.0,
        0.02539999969303608,
        0.0,
        0.0,
        0.0,
        0.0,
        1.0
      ],
      "name": "fnmg00_0Shape2.component[0]_56"
    },
    {
      "mesh": 41,
      "name": "Object_77"
    },
    {
      "children": [
        79
      ],
      "matrix": [
        0.02539999969303608,
        0.0,
        0.0,
        0.0,
        0.0,
        0.02539999969303608,
        0.0,
        0.0,
        0.0,
        0.0,
        0.02539999969303608,
        0.0,
        0.0,
        0.0,
        0.0,
        1.0
      ],
      "name": "fnmg00_0Shape1.component[0]_57"
    },
    {
      "mesh": 42,
      "name": "Object_79"
    },
    {
      "children": [
        81
      ],
      "matrix": [
        0.02539999969303608,
        0.0,
        0.0,
        0.0,
        0.0,
        0.02539999969303608,
        0.0,
        0.0,
        0.0,
        0.0,
        0.02539999969303608,
        0.0,
        0.0,
        0.0,
        0.0,
        1.0
      ],
      "name": "window01Shape.component[0]_58"
    },
    {
      "mesh": 43,
      "name": "Object_81"
    },
    {
      "children": [
        83,
        84,
        85,
        86
      ],
      "matrix": [
        0.0,
        0.0,
        -0.028808211907744408,
        0.0,
        0.028808211907744408,
        0.0,
        0.0,
        0.0,
        0.0,
        -0.028808211907744408,
        0.0,
        0.0,
        0.7300000190734863,
        0.06499812006950378,
        1.3575446605682373,
        1.0
      ],
      "name": "Cylinder_188"
    },
    {
      "mesh": 44,
      "name": "Object_83"
    },
    {
      "mesh": 45,
      "name": "Object_84"
    },
    {
      "mesh": 46,
      "name": "Object_85"
    },
    {
      "mesh": 47,
      "name": "Object_86"
    }
  ],
  "samplers": [
    {
      "magFilter": 9729,
      "minFilter": 9987,
      "wrapS": 10497,
      "wrapT": 10497
    }
  ],
  "scene": 0,
  "scenes": [
    {
      "name": "Sketchfab_Scene",
      "nodes": [
        0
      ]
    }
  ],
  "textures": [
    {
      "sampler": 0,
      "source": 0
    },
    {
      "sampler": 0,
      "source": 1
    },
    {
      "sampler": 0,
      "source": 2
    },
    {
      "sampler": 0,
      "source": 3
    },
    {
      "sampler": 0,
      "source": 4
    },
    {
      "sampler": 0,
      "source": 5
    },
    {
      "sampler": 0,
      "source": 6
    },
    {
      "sampler": 0,
      "source": 7
    },
    {
      "sampler": 0,
      "source": 8
    }
  ]
}
